<svg width="22" height="20" viewBox="0 0 22 20" fill="none" xmlns="http://www.w3.org/2000/svg">
<g clip-path="url(#clip0_512_2355)">
<path d="M4.91436 3.18772C5.64542 2.91357 7.09231 3.08111 7.47307 3.90355C7.85383 4.72599 8.08229 5.79212 8.09752 5.53321C8.06837 4.74625 8.13486 3.95866 8.29551 3.18772C8.46478 2.69398 8.85266 2.30611 9.34641 2.13682C9.79923 1.99361 10.28 1.96225 10.7476 2.04544C11.2203 2.14276 11.6392 2.41467 11.9203 2.80696C12.2767 3.69509 12.4776 4.63789 12.5143 5.59413C12.5522 4.77817 12.6904 3.96996 12.9255 3.18772C13.18 2.82912 13.5518 2.57057 13.9764 2.45666C14.4799 2.36461 14.9959 2.36461 15.4995 2.45666C15.9128 2.59383 16.2742 2.85427 16.5351 3.20295C16.8586 4.01039 17.0539 4.86345 17.1139 5.7312C17.1139 5.94443 17.2205 5.13722 17.5556 4.60415C17.8248 3.80506 18.6908 3.37547 19.4898 3.64464C20.289 3.9138 20.7186 4.7798 20.4493 5.5789V7.19332V9.02097C20.3945 9.91229 20.2724 10.7981 20.0838 11.6711C19.8196 12.4438 19.4505 13.1765 18.9872 13.8491C18.2479 14.6715 17.6369 15.6009 17.1748 16.6058C17.0621 17.1054 17.0109 17.6168 17.0225 18.1288C17.021 18.6019 17.0825 19.0731 17.2053 19.53C16.5826 19.5964 15.9547 19.5964 15.3319 19.53C14.7379 19.4387 14.0069 18.2507 13.8089 17.8852C13.7109 17.6888 13.5105 17.5649 13.291 17.5649C13.0717 17.5649 12.8711 17.6888 12.7732 17.8852C12.4381 18.4639 11.6919 19.5148 11.2502 19.5757C10.2298 19.6976 8.11275 19.5757 6.46786 19.5757C6.46786 19.5757 6.75724 18.0527 6.11756 17.5044C5.47789 16.9561 4.85344 16.3163 4.3813 15.89L3.11717 14.4888C2.22572 13.6611 1.57339 12.609 1.2286 11.4427C0.90876 10.0109 0.939221 9.32558 1.2286 8.74682C1.52373 8.26891 1.98462 7.91646 2.52318 7.75685C2.97061 7.67569 3.43119 7.70709 3.86346 7.84823C4.16237 7.97338 4.42073 8.17899 4.60975 8.44222C4.96005 8.91436 5.0819 9.14282 4.92959 8.62498C4.77729 8.10715 4.44222 7.72639 4.27468 7.10194C3.94852 6.36448 3.75271 5.57605 3.69593 4.77169C3.75834 4.05002 4.26222 3.44292 4.96005 3.24864" fill="#B679FA"/>
<path fill-rule="evenodd" clip-rule="evenodd" d="M4.91436 3.18772C5.64542 2.91357 7.09231 3.08111 7.47307 3.90355C7.85383 4.72599 8.08229 5.79212 8.09752 5.53321C8.06837 4.74625 8.13486 3.95866 8.29551 3.18772C8.46478 2.69398 8.85266 2.30611 9.34641 2.13682C9.79923 1.99361 10.28 1.96225 10.7476 2.04544C11.2203 2.14276 11.6392 2.41467 11.9203 2.80696C12.2767 3.69509 12.4776 4.63789 12.5143 5.59413C12.5522 4.77817 12.6904 3.96996 12.9255 3.18772C13.18 2.82912 13.5518 2.57057 13.9764 2.45666C14.4799 2.36461 14.9959 2.36461 15.4995 2.45666C15.9128 2.59383 16.2742 2.85427 16.5351 3.20295C16.8586 4.01039 17.0539 4.86345 17.1139 5.7312C17.1139 5.94443 17.2205 5.13722 17.5556 4.60415C17.8248 3.80506 18.6908 3.37547 19.4898 3.64464C20.289 3.9138 20.7186 4.7798 20.4493 5.5789V7.19332V9.02097C20.3945 9.91229 20.2724 10.7981 20.0838 11.6711C19.8196 12.4438 19.4505 13.1765 18.9872 13.8491C18.2479 14.6715 17.6369 15.6009 17.1748 16.6058C17.0621 17.1054 17.0109 17.6168 17.0225 18.1288C17.021 18.6019 17.0825 19.0731 17.2053 19.53C16.5826 19.5964 15.9547 19.5964 15.3319 19.53C14.7379 19.4387 14.0069 18.2507 13.8089 17.8852C13.7109 17.6888 13.5105 17.5649 13.291 17.5649C13.0717 17.5649 12.8711 17.6888 12.7732 17.8852C12.4381 18.4639 11.6919 19.5148 11.2502 19.5757C10.2298 19.6976 8.11275 19.5757 6.46786 19.5757C6.46786 19.5757 6.75724 18.0527 6.11756 17.5044C5.47789 16.9561 4.85344 16.3164 4.3813 15.89L3.11717 14.4888C2.22572 13.6611 1.57339 12.609 1.2286 11.4427C0.90876 10.0109 0.939221 9.32558 1.2286 8.74682C1.52373 8.26891 1.98462 7.91646 2.52318 7.75685C2.97061 7.67569 3.43119 7.70709 3.86346 7.84823C4.16237 7.97338 4.42073 8.17899 4.60975 8.44222C4.96005 8.91436 5.0819 9.14282 4.92959 8.62498C4.77729 8.10715 4.44222 7.72639 4.27468 7.10194C3.94852 6.36448 3.75271 5.57605 3.69593 4.77169C3.72706 4.03947 4.21461 3.40564 4.91436 3.18772Z" stroke="#222124" stroke-width="1.14228" stroke-linejoin="round"/>
<path d="M16.718 14.8785V9.6213C16.718 9.30661 16.4622 9.05151 16.1468 9.05151C15.8314 9.05151 15.5757 9.30661 15.5757 9.6213V14.8785C15.5757 15.1932 15.8314 15.4483 16.1468 15.4483C16.4622 15.4483 16.718 15.1932 16.718 14.8785Z" fill="#222124"/>
<path d="M13.7023 14.8765L13.6718 9.61666C13.67 9.30273 13.4128 9.04971 13.0973 9.05152C12.7819 9.05332 12.5277 9.30928 12.5296 9.62321L12.56 14.8831C12.5618 15.197 12.8191 15.4501 13.1345 15.4483C13.4499 15.4465 13.7041 15.1904 13.7023 14.8765Z" fill="#222124"/>
<path d="M9.48341 9.63013L9.51387 14.8764C9.51571 15.1941 9.77291 15.4501 10.0883 15.4483C10.4038 15.4465 10.658 15.1874 10.6561 14.8697L10.6257 9.6234C10.6238 9.30571 10.3666 9.04967 10.0512 9.05152C9.73576 9.05338 9.48157 9.31242 9.48341 9.63013Z" fill="#222124"/>
</g>
<defs>
<clipPath id="clip0_512_2355">
<rect width="21" height="20" fill="white" transform="translate(0.5)"/>
</clipPath>
</defs>
</svg>
