<svg width="21" height="20" viewBox="0 0 21 20" fill="none" xmlns="http://www.w3.org/2000/svg">
<g clip-path="url(#clip0_512_2339)">
<path d="M5.86586 10.674C5.74371 10.2221 5.62156 9.63579 5.36505 8.78074C5.10853 7.92569 4.94974 7.73025 4.79094 7.2783C4.63215 6.82635 4.42449 6.39882 4.1802 5.83693C3.95642 5.26289 3.76876 4.67544 3.61831 4.07798C3.51663 3.57448 3.64174 3.05175 3.96033 2.64883C4.39867 2.22108 5.03119 2.0583 5.62156 2.2213C6.08408 2.42357 6.47547 2.75965 6.74534 3.18629C7.10573 3.76243 7.40071 4.37698 7.62481 5.01853C7.96896 5.89756 8.21873 6.81066 8.36993 7.74247L8.47986 8.29214C8.47986 8.29214 8.47986 6.92406 8.47986 6.8752C8.47986 5.65371 8.40657 4.65208 8.47986 3.28401C8.47986 3.12521 8.55315 2.56332 8.57758 2.40453C8.60916 1.87924 8.92219 1.41204 9.39598 1.18303C9.93989 0.938989 10.5621 0.938989 11.1061 1.18303C11.593 1.40098 11.918 1.87197 11.9489 2.40453C11.9489 2.53889 12.0588 3.62602 12.0588 3.76039V6.41104C12.0588 6.69198 12.0588 8.40208 12.0588 8.20664C12.0877 6.59482 12.2264 4.98684 12.4741 3.39394C12.6189 2.89489 12.9701 2.4815 13.4391 2.25795C14.0192 2.02946 14.6783 2.14243 15.1492 2.55111C15.5013 2.93746 15.7084 3.43387 15.7355 3.95583V5.4827V8.07227C15.7355 8.07227 15.7355 8.43872 15.7355 8.29214C15.8455 7.95012 15.9676 7.63253 16.0653 7.38823C16.1631 7.14393 16.3585 6.64312 16.5051 6.33775C16.6542 6.04662 16.8216 5.76512 17.0059 5.49491C17.1974 5.18432 17.4846 4.94429 17.8243 4.81088C18.1303 4.69261 18.4708 4.70235 18.7696 4.8379C19.0683 4.97346 19.2999 5.22342 19.4122 5.53156C19.4849 5.97649 19.4849 6.43027 19.4122 6.8752C19.3308 7.55855 19.1877 8.23312 18.9847 8.89067C18.8259 9.44035 18.6549 10.3931 18.5694 10.845C18.4839 11.297 18.2885 12.5307 18.1297 13.0681C17.8945 13.7093 17.5696 14.3139 17.1647 14.8637C16.572 15.5237 16.0821 16.269 15.7111 17.0747C15.6199 17.4752 15.5788 17.8855 15.589 18.2961C15.587 18.6757 15.6364 19.0537 15.7355 19.4199C15.2362 19.4732 14.7326 19.4732 14.2331 19.4199C13.7567 19.3466 13.1704 18.3939 13.0116 18.1007C12.9331 17.9434 12.7722 17.8438 12.5963 17.8438C12.4204 17.8438 12.2595 17.9434 12.181 18.1007C11.9 18.5649 11.3137 19.4077 10.8984 19.4566C10.08 19.5543 8.39436 19.4566 7.06293 19.4566C7.06293 19.4566 7.29501 18.2351 6.78198 17.7953C6.26895 17.3556 5.76814 16.8426 5.38948 16.5005L4.37563 15.3768C4.03362 14.937 3.60609 14.0453 2.86098 12.9338C2.43346 12.323 1.63948 11.6023 1.29746 11.0038C1.01031 10.5181 0.926899 9.93851 1.06538 9.39149C1.27279 8.66514 1.99452 8.21208 2.73883 8.341C3.30499 8.3783 3.84052 8.61151 4.25348 9.00061C4.58049 9.28356 4.88666 9.58972 5.16961 9.91673C5.36505 10.1488 5.41391 10.2587 5.63378 10.5396C5.85365 10.8206 6.00022 11.1015 5.89029 10.6862" fill="#B679FA"/>
<path d="M5.86586 10.674C5.74371 10.2221 5.62156 9.63579 5.36505 8.78074C5.10853 7.92569 4.94974 7.73025 4.79094 7.2783C4.63215 6.82635 4.42449 6.39882 4.1802 5.83693C3.95642 5.26289 3.76876 4.67544 3.61831 4.07798C3.51663 3.57448 3.64174 3.05175 3.96033 2.64883C4.39867 2.22108 5.03119 2.0583 5.62156 2.2213C6.08408 2.42357 6.47547 2.75965 6.74534 3.18629C7.10573 3.76243 7.40071 4.37698 7.62481 5.01853C7.96896 5.89756 8.21873 6.81066 8.36993 7.74247L8.47986 8.29214C8.47986 8.29214 8.47986 6.92406 8.47986 6.8752C8.47986 5.65371 8.40657 4.65208 8.47986 3.28401C8.47986 3.12521 8.55315 2.56332 8.57758 2.40453C8.60916 1.87924 8.92219 1.41204 9.39598 1.18303C9.93989 0.938989 10.5621 0.938989 11.1061 1.18303C11.593 1.40098 11.918 1.87197 11.9489 2.40453C11.9489 2.53889 12.0588 3.62602 12.0588 3.76039V6.41104C12.0588 6.69198 12.0588 8.40208 12.0588 8.20664C12.0877 6.59482 12.2264 4.98684 12.4741 3.39394C12.6189 2.89489 12.9701 2.4815 13.4391 2.25795C14.0192 2.02946 14.6783 2.14243 15.1492 2.55111C15.5013 2.93746 15.7084 3.43387 15.7355 3.95583V5.4827V8.07227C15.7355 8.07227 15.7355 8.43872 15.7355 8.29214C15.8455 7.95012 15.9676 7.63253 16.0653 7.38823C16.1631 7.14393 16.3585 6.64312 16.5051 6.33775C16.6542 6.04662 16.8216 5.76512 17.0059 5.49491C17.1974 5.18432 17.4846 4.94429 17.8243 4.81088C18.1303 4.69261 18.4708 4.70235 18.7696 4.8379C19.0683 4.97346 19.2999 5.22342 19.4122 5.53156C19.4849 5.97649 19.4849 6.43027 19.4122 6.8752C19.3308 7.55855 19.1877 8.23312 18.9847 8.89067C18.8259 9.44035 18.6549 10.3931 18.5694 10.845C18.4839 11.297 18.2885 12.5307 18.1297 13.0681C17.8945 13.7093 17.5696 14.3139 17.1647 14.8637C16.572 15.5237 16.0821 16.269 15.7111 17.0747C15.6199 17.4752 15.5788 17.8855 15.589 18.2961C15.587 18.6757 15.6364 19.0537 15.7355 19.4199C15.2362 19.4732 14.7326 19.4732 14.2331 19.4199C13.7567 19.3466 13.1704 18.3939 13.0116 18.1007C12.9331 17.9434 12.7722 17.8438 12.5963 17.8438C12.4204 17.8438 12.2595 17.9434 12.181 18.1007C11.9 18.5649 11.3137 19.4077 10.8984 19.4566C10.08 19.5543 8.39436 19.4566 7.06293 19.4566C7.06293 19.4566 7.29501 18.2351 6.78198 17.7953C6.26895 17.3556 5.76814 16.8426 5.38948 16.5005L4.37563 15.3768C4.03362 14.937 3.60609 14.0453 2.86098 12.9338C2.43346 12.323 1.63948 11.6023 1.29746 11.0038C1.01031 10.5181 0.926899 9.93851 1.06538 9.39149C1.27279 8.66514 1.99452 8.21207 2.73883 8.341C3.30499 8.3783 3.84052 8.61151 4.25348 9.00061C4.58049 9.28354 4.88666 9.58972 5.16961 9.91673C5.36505 10.1488 5.41391 10.2587 5.63378 10.5396C5.85365 10.8206 6.00022 11.1015 5.89029 10.6862" stroke="#222124" stroke-width="0.942576" stroke-linecap="round" stroke-linejoin="round"/>
<path d="M14.8683 15.7568V11.5404C14.8683 11.288 14.6632 11.0834 14.4102 11.0834C14.1572 11.0834 13.9521 11.288 13.9521 11.5404V15.7568C13.9521 16.0091 14.1572 16.2137 14.4102 16.2137C14.6632 16.2137 14.8683 16.0091 14.8683 15.7568Z" fill="#222124"/>
<path d="M12.4376 15.7565L12.4254 11.538C12.4247 11.2862 12.219 11.0827 11.966 11.0834C11.713 11.0842 11.5085 11.2889 11.5093 11.5406L11.5215 15.7591C11.5222 16.011 11.7279 16.2145 11.9809 16.2137C12.2339 16.213 12.4383 16.0083 12.4376 15.7565Z" fill="#222124"/>
<path d="M9.07252 11.5413L9.09695 15.7488C9.09843 16.0036 9.30471 16.209 9.55768 16.2074C9.81066 16.2059 10.0145 15.9981 10.0131 15.7433L9.98863 11.5358C9.98715 11.281 9.78088 11.0756 9.52789 11.0772C9.27492 11.0787 9.07104 11.2865 9.07252 11.5413Z" fill="#222124"/>
</g>
<defs>
<clipPath id="clip0_512_2339">
<rect width="20" height="20" fill="white" transform="translate(0.5)"/>
</clipPath>
</defs>
</svg>
